<svg width="48" height="62" viewBox="0 0 48 62" fill="none" xmlns="http://www.w3.org/2000/svg">
<path d="M19.6192 42.5508L23.1378 40.3983L28.3812 41.517L25.4405 44L19.6192 42.5508Z" fill="#005288"/>
<path d="M19.3135 34.6388L18.3662 29.5898L21.9643 27.4355L27.2078 28.556L25.6738 34.326L23.8111 36.0367L19.3135 34.6388Z" fill="#33CCFF"/>
<path d="M33.151 6.19313L28.7541 22.7364L24.67 25.4597L17.3182 23.0474L14.8494 8.69203L22.2259 3.99997L33.151 6.19313Z" fill="#33CCFF"/>
<path d="M24.2671 31.0372L27.2078 28.556L25.6738 34.3261L23.903 36.0509L24.2671 31.0372Z" fill="#003399"/>
<path d="M28.7541 22.7364L33.151 6.19316L25.6738 10.9718L24.67 25.4598L28.7541 22.7364Z" fill="#003399"/>
<path d="M19.3134 34.6388L18.4439 29.5898L24.267 31.0371L23.903 36.0508L19.3134 34.6388Z" fill="#91E200"/>
<path d="M25.6738 10.9718L24.67 25.4597L17.449 23.8055L14.8494 8.69199L25.6738 10.9718Z" fill="#91E200"/>
</svg>
